# xmcd CD database file
#
# Track frame offsets:
#	187
#	11320
#	23140
#	35170
#	49942
#	61970
#	72595
#	85045
#	97070
#	110312
#	124425
#	135050
#
# Disc length: 1947 seconds
#
# Revision: 2
# Processed by: cddbd v1.5.1PL0 Copyright (c) Steve Scherf et al.
# Submitted via: CDex 1.50
#
DISCID=9e07990c
DTITLE=Marvin Gaye - in the Groove
DYEAR=1968
DGENRE=Soul
TTITLE0=You
TTITLE1=Tear It Down
TTITLE2=Chained
TTITLE3=I Heard It Through The Grapevine
TTITLE4=At Last
TTITLE5=Some Kind Of Wonderful
TTITLE6=Loving You Is Sweeter Than Ever
TTITLE7=Change What You Can
TTITLE8=It's Love I Need
TTITLE9=Every Now And Then
TTITLE10=You're What's Happening In The World Today
TTITLE11=There Goes My Baby
EXTD=YEAR: 1968
EXTT0=
EXTT1=
EXTT2=
EXTT3=
EXTT4=
EXTT5=
EXTT6=
EXTT7=
EXTT8=
EXTT9=
EXTT10=
EXTT11=
PLAYORDER=
